<?xml version="1.0" encoding="UTF-8"?>
<svg version="1.1" xmlns="http://www.w3.org/2000/svg" width="60" height="61">
<path d="M0 0 C0.66 0 1.32 0 2 0 C2.39832031 0.65484375 2.79664063 1.3096875 3.20703125 1.984375 C4.90397821 4.33806485 4.90397821 4.33806485 8.13671875 4.390625 C9.89435547 4.32101562 9.89435547 4.32101562 11.6875 4.25 C12.86699219 4.21390625 14.04648437 4.1778125 15.26171875 4.140625 C16.16535156 4.09421875 17.06898437 4.0478125 18 4 C18.66 2.68 19.32 1.36 20 0 C20.66 0 21.32 0 22 0 C21.731875 0.886875 21.46375 1.77375 21.1875 2.6875 C20.60152156 6.16719863 20.60152156 6.16719863 23.3125 8.625 C24.199375 9.40875 25.08625 10.1925 26 11 C28.46249179 14.61645848 28.25822639 18.03387678 28.265625 22.3203125 C28.26849518 23.37011795 28.26849518 23.37011795 28.27142334 24.44113159 C28.27278057 25.91534791 28.26911645 27.38957637 28.26074219 28.86376953 C28.25000335 31.12429442 28.26066908 33.38403045 28.2734375 35.64453125 C28.27211645 37.07812676 28.2695552 38.51172177 28.265625 39.9453125 C28.26336914 41.25000488 28.26111328 42.55469727 28.25878906 43.89892578 C28 47 28 47 26 49 C23.375 49.125 23.375 49.125 21 49 C21.02320312 49.69867188 21.04640625 50.39734375 21.0703125 51.1171875 C21.09738281 52.48230469 21.09738281 52.48230469 21.125 53.875 C21.14820312 54.77992187 21.17140625 55.68484375 21.1953125 56.6171875 C21 59 21 59 19 61 C14.44444444 60.44444444 14.44444444 60.44444444 13 59 C12.92794489 57.31391034 12.91613932 55.62499341 12.9375 53.9375 C12.94652344 53.01839844 12.95554687 52.09929688 12.96484375 51.15234375 C12.97644531 50.44207031 12.98804687 49.73179688 13 49 C11.68 49 10.36 49 9 49 C9.02320313 49.69867188 9.04640625 50.39734375 9.0703125 51.1171875 C9.09738281 52.48230469 9.09738281 52.48230469 9.125 53.875 C9.14820313 54.77992187 9.17140625 55.68484375 9.1953125 56.6171875 C9 59 9 59 7 61 C2.44444444 60.44444444 2.44444444 60.44444444 1 59 C0.92794489 57.31391034 0.91613932 55.62499341 0.9375 53.9375 C0.94652344 53.01839844 0.95554687 52.09929688 0.96484375 51.15234375 C0.98224609 50.08693359 0.98224609 50.08693359 1 49 C-0.175625 49.061875 -0.175625 49.061875 -1.375 49.125 C-4 49 -4 49 -6 47 C-6.42513998 42.53174303 -6.3715881 38.04797927 -6.37060547 33.56176758 C-6.37495036 31.33790886 -6.41117636 29.11608165 -6.44921875 26.89257812 C-6.45509282 25.46615258 -6.45905826 24.03971765 -6.4609375 22.61328125 C-6.46915527 21.32204346 -6.47737305 20.03080566 -6.48583984 18.70043945 C-5.8281833 13.69134387 -4.03349389 9.82313245 -0.1875 6.375 C0.204375 5.92125 0.59625 5.4675 1 5 C0.76956136 2.34533951 0.76956136 2.34533951 0 0 Z M3 11 C4 13 4 13 4 13 Z M18 11 C19 13 19 13 19 13 Z " fill="#FFFFFF" transform="translate(19,0)"/>
<path d="M0 0 C0.598125 0.350625 1.19625 0.70125 1.8125 1.0625 C1.84137814 4.54164941 1.85925687 8.02076831 1.875 11.5 C1.88337891 12.49322266 1.89175781 13.48644531 1.90039062 14.50976562 C1.90361328 15.45400391 1.90683594 16.39824219 1.91015625 17.37109375 C1.91539307 18.24564209 1.92062988 19.12019043 1.92602539 20.02124023 C1.8125 22.0625 1.8125 22.0625 0.8125 23.0625 C-1.625 23.25 -1.625 23.25 -4.1875 23.0625 C-6.1875 21.0625 -6.1875 21.0625 -6.43041992 19.12304688 C-6.42631104 18.35025391 -6.42220215 17.57746094 -6.41796875 16.78125 C-6.41603516 15.93949219 -6.41410156 15.09773438 -6.41210938 14.23046875 C-6.39986328 13.35003906 -6.38761719 12.46960937 -6.375 11.5625 C-6.37435547 10.68207031 -6.37371094 9.80164062 -6.37304688 8.89453125 C-6.32790057 2.34330115 -6.32790057 2.34330115 -5.1875 0.0625 C-2.1875 -0.9375 -2.1875 -0.9375 0 0 Z " fill="#FFFFFF" transform="translate(10.1875,19.9375)"/>
<path d="M0 0 C1.875 0.75 1.875 0.75 2.875 2.75 C3.1117715 5.91119798 3.06018001 9.08089738 3.0625 12.25 C3.07474609 13.13042969 3.08699219 14.01085938 3.09960938 14.91796875 C3.10250977 16.18060547 3.10250977 16.18060547 3.10546875 17.46875 C3.10957764 18.24154297 3.11368652 19.01433594 3.11791992 19.81054688 C2.875 21.75 2.875 21.75 0.875 23.75 C-1.6875 23.9375 -1.6875 23.9375 -4.125 23.75 C-6.49436565 21.38063435 -5.35833037 15.49431576 -5.375 12.3125 C-5.4059375 10.84200195 -5.4059375 10.84200195 -5.4375 9.34179688 C-5.44265625 8.40529297 -5.4478125 7.46878906 -5.453125 6.50390625 C-5.4624707 5.64095947 -5.47181641 4.7780127 -5.48144531 3.88891602 C-5.36381836 3.18307373 -5.24619141 2.47723145 -5.125 1.75 C-2.125 -0.25 -2.125 -0.25 0 0 Z " fill="#FFFFFF" transform="translate(53.125,19.25)"/>
</svg>
