<?xml version="1.0" encoding="UTF-8"?>
<svg version="1.1" xmlns="http://www.w3.org/2000/svg" width="50" height="61">
<path d="M0 0 C2.5625 2 2.5625 2 4 4 C4 6 4 6 2.0625 8 C1.381875 8.66 0.70125 9.32 0 10 C-1.60632723 13.21265446 -1.47931944 16.51521812 -1 20 C1.01502889 23.75212276 2.45466142 25.63644095 6 28 C3.90479993 35.33320026 0.40188816 40.85760178 -6 45 C-9.5 44.875 -9.5 44.875 -13 44 C-16.5865241 43.19486194 -18.42631602 42.80470333 -21.9375 44 C-25.93550402 45.3054707 -27.97113464 45.27227327 -32 44 C-38.43801442 38.67105529 -43.18256576 30.37870097 -44 22 C-44.59368163 15.04544374 -44.10818794 9.78997738 -40 4 C-37.32651467 0.94458819 -35.55322003 -0.79449704 -31.4609375 -1.3359375 C-24.86204482 -1.43102241 -24.86204482 -1.43102241 -22 0 C-19.91706309 -0.06151113 -19.91706309 -0.06151113 -17.625 -0.375 C-16.46871094 -0.51035156 -16.46871094 -0.51035156 -15.2890625 -0.6484375 C-13.02634751 -0.94542423 -13.02634751 -0.94542423 -10.9921875 -1.58203125 C-7.21900845 -2.37365901 -3.58341751 -1.24268974 0 0 Z " fill="#FFFFFF" transform="translate(44,16)"/>
<path d="M0 0 C0.43997682 4.39976824 0.30688367 6.50712622 -2.0625 10.3125 C-5.51662538 13.47265726 -7.49504981 14.11667643 -12 15 C-12.42397033 10.76029672 -12.43792242 8.01657823 -9.75 4.6875 C-6.38388219 1.39788487 -4.70037609 0 0 0 Z " fill="#FFFFFF" transform="translate(37,0)"/>
</svg>
