<?xml version="1.0" encoding="UTF-8"?>
<svg version="1.1" xmlns="http://www.w3.org/2000/svg" width="60" height="61">
<path d="M0 0 C9.9 0 19.8 0 30 0 C30 8.91 30 17.82 30 27 C22.59888308 26.38324026 15.51325103 25.72766421 8.25 24.4375 C5.5275 23.963125 2.805 23.48875 0 23 C0 15.41 0 7.82 0 0 Z " fill="#FFFFFF" transform="translate(30,33)"/>
<path d="M0 0 C0 8.91 0 17.82 0 27 C-9.9 27 -19.8 27 -30 27 C-30 19.41 -30 11.82 -30 4 C-25.93823992 3.3285356 -21.87569931 2.66264848 -17.8125 2 C-16.08676758 1.71382813 -16.08676758 1.71382813 -14.32617188 1.421875 C-12.65844727 1.15117188 -12.65844727 1.15117188 -10.95703125 0.875 C-9.42526245 0.62363281 -9.42526245 0.62363281 -7.86254883 0.3671875 C-5 0 -5 0 0 0 Z " fill="#FFFFFF" transform="translate(60,1)"/>
<path d="M0 0 C8.25 0 16.5 0 25 0 C25 7.26 25 14.52 25 22 C21.02015459 21.52599594 17.0411854 21.04605984 13.0625 20.5625 C11.92619141 20.42779297 10.78988281 20.29308594 9.61914062 20.15429688 C8.53955078 20.02216797 7.45996094 19.89003906 6.34765625 19.75390625 C5.34742432 19.63345947 4.34719238 19.5130127 3.31665039 19.38891602 C1 19 1 19 0 18 C-0.08631874 16.65732587 -0.10706473 15.31025678 -0.09765625 13.96484375 C-0.09515869 13.23644287 -0.09266113 12.50804199 -0.09008789 11.75756836 C-0.08098389 10.8269458 -0.07187988 9.89632324 -0.0625 8.9375 C-0.041875 5.988125 -0.02125 3.03875 0 0 Z " fill="#FFFFFF" transform="translate(0,33)"/>
<path d="M0 0 C0 7.26 0 14.52 0 22 C-8.25 22 -16.5 22 -25 22 C-25.020625 19.050625 -25.04125 16.10125 -25.0625 13.0625 C-25.071604 12.13187744 -25.08070801 11.20125488 -25.09008789 10.24243164 C-25.09258545 9.51403076 -25.09508301 8.78562988 -25.09765625 8.03515625 C-25.10289307 7.2862915 -25.10812988 6.53742676 -25.11352539 5.76586914 C-25 4 -25 4 -24 3 C-22.47949676 2.70338456 -20.94809614 2.46208361 -19.4140625 2.24609375 C-18.01800781 2.04790039 -18.01800781 2.04790039 -16.59375 1.84570312 C-15.6140625 1.71099609 -14.634375 1.57628906 -13.625 1.4375 C-12.65304687 1.29892578 -11.68109375 1.16035156 -10.6796875 1.01757812 C-3.42129772 0 -3.42129772 0 0 0 Z " fill="#FFFFFF" transform="translate(25,6)"/>
</svg>
